<?xml version="1.0" encoding="UTF-8"?>
<!DOCTYPE svg PUBLIC "-//W3C//DTD SVG 1.1//EN" "http://www.w3.org/Graphics/SVG/1.1/DTD/svg11.dtd">
<!-- Creator: CorelDRAW 2018 (64 Bit Versión de evaluación) -->
<svg xmlns="http://www.w3.org/2000/svg" xml:space="preserve" width="137.336mm" height="50.8598mm" version="1.1" style="shape-rendering:geometricPrecision; text-rendering:geometricPrecision; image-rendering:optimizeQuality; fill-rule:evenodd; clip-rule:evenodd"
viewBox="0 0 1712.36 634.14"
 xmlns:xlink="http://www.w3.org/1999/xlink">
 <defs>
  <style type="text/css">
   <![CDATA[
    .str0 {stroke:#E6E6E6;stroke-width:0.95;stroke-miterlimit:22.9256}
    .fil5 {fill:#3e6dc9;}
    .fil0 {fill:#3e6dc9;}
    .fil6 {fill:#3e6dc9;fill-rule:nonzero}
    .fil2 {fill:url(#id0)}
    .fil4 {fill:url(#id1)}
    .fil1 {fill:url(#id2)}
    .fil3 {fill:url(#id3)}
   ]]>
  </style>
  <linearGradient id="id0" gradientUnits="userSpaceOnUse" x1="300.91" y1="387.2" x2="413.69" y2="387.2">
   <stop offset="0" style="stop-opacity:1; stop-color:#095890"/>
   <stop offset="1" style="stop-opacity:1; stop-color:#2497CF"/>
  </linearGradient>
  <linearGradient id="id1" gradientUnits="userSpaceOnUse" xlink:href="#id0" x1="177.44" y1="459.27" x2="296.2" y2="459.27">
  </linearGradient>
  <linearGradient id="id2" gradientUnits="userSpaceOnUse" xlink:href="#id0" x1="425.4" y1="300.23" x2="537.65" y2="300.23">
  </linearGradient>
  <linearGradient id="id3" gradientUnits="userSpaceOnUse" xlink:href="#id0" x1="314.15" y1="333.28" x2="727.93" y2="333.28">
  </linearGradient>
 </defs>
 <g id="Capa_x0020_1">
  <metadata id="CorelCorpID_0Corel-Layer"/>
  <path class="fil0" d="M537.53 461.76c-4.39,14.98 -1.56,9.03 -11.37,16.95 -0.44,0.35 -1.03,0.83 -1.46,1.19 -0.42,0.36 -0.98,0.87 -1.39,1.24l-50.32 38.47c-7.89,4.58 -4.76,3.2 -15.28,7.83 -16.01,7.05 -15.14,15.82 -32.32,7.93 -0.26,10.38 -2.39,9.56 -11.42,11.76l-0.38 -28.09c-4.1,5.62 -2.16,15.02 -2.35,24.21 -13.52,12.2 -12.53,5.37 -25.47,11.31 -0.67,0.31 -2.31,1.44 -3.03,1.75l-10.57 2.84c-23.74,4.81 5.29,5.21 -40.79,7.75 -26.56,1.46 -22.24,-2.12 -26.22,-7.23l-4.26 8.32 -4.7 0.1 -50.6 -2.93 -68.17 -20.68c-15.21,-8.64 -24.18,-9.07 -52.13,-26.46 -19.59,-12.19 -32.28,-22.5 -47.93,-35.77 -20.31,-17.2 -42.75,-43.37 -57.95,-66.35 -6.44,-9.74 -10.82,-20.39 -19.43,-26.47 5.53,33.4 33.32,75.43 53.11,101.75 31.28,41.6 93.62,85.16 151.89,104.98 113.67,38.65 227.13,14.47 319.53,-52.97 176.57,-128.89 185.92,-416.6 -2.37,-543.19 9.15,15.58 39.54,38.74 65.44,94.03 40.8,87.09 47.79,178.5 12.87,268.5 -9.88,25.46 -44.93,92.2 -62.93,99.23z"/>
  <g id="_2190224201216">
   <path class="fil1" d="M425.4 535.37c17.18,7.89 16.31,-0.88 32.32,-7.93 10.52,-4.63 7.39,-3.25 15.28,-7.83l50.32 -38.47c0.41,-0.37 0.97,-0.88 1.39,-1.24 0.43,-0.36 1.02,-0.84 1.46,-1.19 9.81,-7.92 6.98,-1.97 11.37,-16.95l0.12 -399.78c-12.73,1.72 -103.54,34.5 -111.49,39.15l-0.75 434.24z"/>
   <path class="fil2" d="M300.91 567.98l4.26 -8.32c3.98,5.11 -0.34,8.7 26.22,7.23 46.08,-2.54 17.05,-2.94 40.79,-7.75l10.57 -2.84c0.71,-0.31 2.35,-1.44 3.03,-1.75 12.94,-5.95 11.95,0.88 25.47,-11.31 0.19,-9.19 -1.75,-18.59 2.35,-24.21l0.09 -312.63c-15.8,2.29 -99.5,32.91 -112.25,39.62l-0.53 321.95z"/>
   <path class="fil3" d="M314.15 620.46c48.27,18.48 112.44,16.71 164.44,3.81 202.94,-50.35 317.72,-290.84 205.11,-489.1 -19.68,-34.65 -66.04,-88.49 -100.49,-102.74 11.16,21.44 65.16,63.49 90.1,171.41 18.33,79.33 5.78,157.83 -25.12,221.72 -42.74,88.37 -123.96,154.4 -216.72,179.63 -64.69,17.59 -70.13,8.61 -117.33,15.28z"/>
   <path class="fil4" d="M177.44 544.47l68.17 20.68 50.6 2.93 -6.19 -217.62c-11.93,1.34 -103.99,34.99 -111.56,40.33l-1.01 153.68z"/>
  </g>
  <path class="fil5" d="M1459.06 271.37l0 -48.52c0,-8.93 0.77,-16.07 0.71,-24.27l1.54 -24.14c0.74,-7.22 1.73,-15.37 3.15,-22.53l4.67 -21.02c4.01,-11.02 14.86,-20.76 25.39,-25.27 20.21,-8.64 46.36,-12.19 69.04,-8.68 6.73,1.04 7.09,1.86 11.9,3.8 16.72,6.76 28.55,15.26 37.32,31.18 1.13,2.04 1.54,3.46 2.58,5.27 4.57,8 11.3,24.47 13.39,32.99 9.47,38.51 10.63,99.77 7.31,141.18 -0.18,2.3 0.11,4.67 -0.14,6.99l-4.3 37.8c-0.52,3.73 -1.29,7.69 -2.07,11.48l-3.06 11.21c-2.25,6.26 -3.46,7.43 -5.88,14.81 -0.81,2.47 -1.18,2.69 -3.01,4.12 -2.73,2.14 -4.97,3.66 -7.77,5.79 -5.12,3.9 -23.4,11.13 -29.5,12.6 -19.76,4.76 -52.62,4.48 -70.74,-4.82 -6.33,-3.25 -15.64,-10.65 -19.84,-16.55 -11.34,-15.96 -4.9,-7.09 -13.32,-23.79 -1.74,-3.46 -3.03,-6.05 -4.76,-9.51 -5.78,-11.56 -3.16,-7.96 -5.78,-23.48 -3.73,-22.14 -6.83,-41.81 -6.83,-66.66zm82.15 -232.62l11.81 0c12.67,0.46 25.52,2.41 40.47,6.14 14.59,3.64 20.67,6.84 33.73,13.37 9.23,4.61 24.94,18.53 32.9,26.32 3.66,3.58 6.43,8.64 10.32,12.52 13.54,13.51 28.04,50.26 33.08,72.52 5.78,25.48 8.85,53.77 8.85,84.63 0,58.28 -7.05,110.28 -38.53,157.7 -3.49,5.26 -17.31,21.41 -22.64,26.59 -5.67,5.5 -7.89,4.02 -11.11,8.16l-0.95 1.19c-2.84,2.94 -12.62,8.4 -16.68,10.44 -10.63,5.33 -22.59,9.77 -35.53,12.99 -6.32,1.57 -13.28,3.04 -20.31,3.95 -3.88,0.5 -7.93,-0.15 -11.84,0.29 -2.65,0.3 -5.36,0.5 -8.09,0.61l-10.19 0c-24.01,-0.92 -49.53,-8.15 -69.35,-18.79 -9.18,-4.93 -24.56,-15.37 -30.63,-23.6 -7.99,-10.83 -6.1,-3.37 -17.72,-22.96l-16.52 -31.28c-15.11,-39.75 -19.56,-91.91 -19.56,-136.7l4.06 -41.6c3.8,-27.98 6.87,-47.78 18.25,-73.08l7.65 -15.18c1.36,-2.62 2.53,-4.62 4.06,-7.35 9.51,-16.99 6.96,-10.08 14.6,-19.65 3.55,-4.44 7.11,-7.66 11.13,-11.7 4.79,-4.82 21.02,-15.63 27.05,-18.61 2.82,-1.39 4.81,-2.41 7.6,-3.81 6.42,-3.23 18.41,-6.99 25.87,-8.38 14.13,-2.64 26.35,-4.28 38.21,-4.69z"/>
  <path class="fil5" d="M1141.53 232.84l-0.71 -17.13c0,-29.57 0.71,-57.29 0.71,-86.34 0,-15.04 2.07,-51.85 0.61,-64.83 -0.63,-5.64 -0.72,-14.44 -2.04,-20.08 -14.53,-1.21 -30.66,-1.43 -45.67,-1.43 -8.78,0 -14.84,0.71 -23.55,0.71 -2.34,10.04 -1.43,14.25 -1.43,24.97l0 321.09c0,9.67 -0.72,17.42 -0.71,26.4 0.02,18.7 0.71,35.23 0.71,53.52 4.1,0.95 31.31,1.43 37.82,1.43 5.5,0 29.85,-0.42 32.51,-1.74 3.53,-1.76 1.43,-11.58 1.85,-15.28 2.37,-21.1 -0.82,-86.51 -0.82,-112.84 0,-8.03 -1.35,-29.58 1.61,-36.21 1.6,-3.59 11.54,-17.53 14.4,-21.28 2.02,-2.64 2.17,-4.18 3.78,-6.92l3.76 -3.38 12.43 31.09c2.91,7.6 5.27,15.82 9.19,22.92 13.52,24.47 26.89,68.72 42.09,89.2 1.76,2.38 2.8,4.37 4.59,6.83l9.31 12.81c1.76,2.15 2.99,3.7 4.75,5.95 1.83,2.33 3.18,4.19 5.21,6.2 1.01,1 1.54,1.47 2.48,2.51 6.34,7.01 14.32,11.71 22.67,15.86 4.24,2.11 11.31,4.43 16.42,5.7 19.78,4.92 42.26,2.28 61.66,-2.56 2.52,-0.63 11.12,-2.08 11.12,-5.29l0 -25.69c0,-8.04 -11.65,-5.65 -16.94,-6.61 -7.08,-1.28 -14.64,-6.05 -19.67,-10.3 -10.89,-9.22 -17.02,-16.41 -25.58,-27.93 -6.24,-8.4 -9.4,-12.34 -14.66,-21.73 -7.23,-12.94 -14.73,-25.49 -21.16,-38.78 -1.48,-3.05 -2.29,-5.31 -3.81,-8.33 -1.48,-2.95 -2.4,-5.57 -3.8,-8.34 -1.45,-2.86 -2.34,-5.17 -3.8,-8.33 -5.2,-11.22 -10.63,-21.54 -14.86,-32.95 -3.02,-8.16 -6.13,-17.42 -10.73,-24.94 -2.94,-4.8 -16.99,-40.46 -16.99,-43.66 0,-3.18 2.13,-5.55 3.66,-7.75l22.17 -31.35c4.39,-6.43 9.01,-12.45 13.41,-18.7 4.38,-6.2 9.79,-12.55 13.73,-19.1 2.66,-4.42 1.71,-4.6 5.61,-7.94l16.51 -18.46c5.79,-5.86 19.69,-18.34 27.22,-21.3 4.66,-1.83 21.6,-5.27 27.56,-5.27 0.62,-2.65 0.94,-2.11 1.56,-5.57 1.07,-6.02 1.25,-22.93 -2.09,-26 -7.32,-6.72 -48.66,-2.26 -59.12,1.89 -7.91,3.14 -18.59,10.05 -24.16,16.51 -6.42,7.43 -8.31,5.59 -19.09,21.58l-9.63 13.91c-5.09,6.87 -10.81,13.21 -14.95,20.72 -2.89,5.24 -5.54,9.22 -9,13.84 -7,9.35 -12.35,19.86 -19.16,29.36l-0.94 1.2c-0.09,0.12 -0.23,0.28 -0.32,0.39l-39.89 61.43c-2.21,3.76 -2.33,3.93 -5.85,6.28z"/>
  <path class="fil5" d="M817.58 44.46l-1.43 416c0,4.69 0.99,6.5 2.85,9.28 6.67,0 10.46,0.73 17.13,0.71 6.16,-0.01 12.43,-0.11 18.58,-0.03l119.13 0.74c15.34,0 28.22,-0.71 43.53,-0.71l2.56 -16c1.33,-9.41 1.01,-21.94 1.01,-31.81 -5.64,0 -9.98,-0.72 -16.41,-0.71 -15.06,0 -38.17,0.42 -51.41,-0.68 -5.59,-0.46 -11.36,0.49 -16.9,-0.22 -4.66,-0.6 -10.4,-1.97 -15.86,-1.98l-25.62 -0.07c-2.47,-0.24 -6.51,-0.1 -6.51,-2.76l0 -140.57c4.07,0 4.95,-0.73 9.25,-0.74 14.31,-0.02 25.49,-1.44 38.57,-1.39 4.37,0.02 5.52,-0.64 9.24,-0.75l39.98 -0.69c9.21,0.01 13.32,1.48 13.57,-6.41 0.4,-12.62 2.13,-25.78 2.13,-38.54 -5.2,0 -7.9,-0.74 -13.56,-0.72 -5.09,0.02 -9.71,0.04 -13.75,-0.52 -5.25,-0.72 -59.32,-0.2 -71.16,-0.19 -5.7,0 -9.64,-0.33 -14.27,-0.71l0 -111.31c0,-3.62 -1.55,-15.93 1.04,-17.51 1.47,-0.9 84.57,-2.37 90.32,-2.44 3.96,-0.05 4.54,-0.72 8.51,-0.77 4.71,-0.06 13.04,0.31 17.85,-0.7 3.46,-0.72 1.87,-2.64 2.36,-6.91 0.56,-4.82 1.1,-11.97 1.74,-16.81 1.42,-10.71 1.19,-15.29 0.06,-24.76 -6.7,-0.02 -10.77,-0.73 -17.71,-0.73l-138.43 0.72c-5.23,0.03 -7.44,-0.74 -12.1,-0.74 -4.08,-0.01 -8.87,-0.19 -12.87,0.02 -3.45,0.18 -8.1,1.15 -11.41,1.43z"/>
  <path class="fil6 str0" d="M849.85 533.76c-8.27,0 -14.81,2.4 -19.62,7.17 -4.79,4.79 -7.18,11.34 -7.18,19.66 0,8.56 2.3,15.17 6.93,19.82 4.61,4.67 11.21,7 19.78,7 5.24,0 11.24,-0.82 17.98,-2.46l0 6.67c-5.23,1.71 -11.66,2.56 -19.34,2.56 -11.1,0 -19.67,-2.91 -25.69,-8.76 -6.03,-5.84 -9.06,-14.15 -9.06,-24.9 0,-6.75 1.46,-12.65 4.36,-17.72 2.9,-5.07 7.09,-8.97 12.58,-11.71 5.47,-2.75 11.93,-4.12 19.35,-4.12 7.92,0 14.81,1.25 20.73,3.74l-3.71 6.53c-5.7,-2.34 -11.4,-3.49 -17.12,-3.49zm113.48 26.75c0,10.47 -3.06,18.69 -9.15,24.69 -6.11,6 -14.59,8.99 -25.46,8.99 -11.1,0 -19.67,-2.95 -25.69,-8.84 -6.04,-5.89 -9.06,-14.19 -9.06,-24.92 0,-10.65 3.03,-18.89 9.08,-24.75 6.05,-5.86 14.64,-8.79 25.78,-8.79 10.84,0 19.28,2.98 25.37,8.94 6.09,5.97 9.13,14.19 9.13,24.68zm-60.07 -0.01c0,8.85 2.16,15.56 6.51,20.14 4.36,4.58 10.68,6.87 18.95,6.87 8.36,0 14.67,-2.27 18.93,-6.84 4.26,-4.56 6.39,-11.29 6.39,-20.17 0,-8.79 -2.11,-15.46 -6.37,-20.01 -4.24,-4.55 -10.52,-6.82 -18.84,-6.82 -8.36,0 -14.69,2.29 -19.05,6.87 -4.35,4.58 -6.51,11.23 -6.51,19.96zm149.44 32.78l-9.99 0 -41.19 -54.86 -0.42 0c0.55,6.44 0.83,12.33 0.83,17.7l0 37.16 -8.09 0 0 -65.37 9.89 0 41.1 54.65 0.41 0c-0.07,-0.81 -0.21,-3.39 -0.46,-7.77 -0.25,-4.36 -0.33,-7.48 -0.26,-9.37l0 -37.51 8.2 0 0 65.37zm76.97 -17.37c0,5.75 -2.41,10.24 -7.21,13.46 -4.82,3.22 -11.35,4.82 -19.6,4.82 -8.94,0 -15.82,-1.01 -20.62,-3.01l0 -7.34c3.1,1.13 6.46,2.03 10.1,2.69 3.64,0.66 7.25,0.98 10.84,0.98 5.84,0 10.24,-0.96 13.2,-2.89 2.96,-1.91 4.43,-4.58 4.43,-8.01 0,-2.26 -0.53,-4.12 -1.56,-5.55 -1.05,-1.45 -2.82,-2.78 -5.26,-4.01 -2.46,-1.22 -6.21,-2.61 -11.22,-4.15 -7,-2.18 -12.02,-4.76 -15.03,-7.74 -3.01,-2.98 -4.52,-6.87 -4.52,-11.67 0,-5.04 2.18,-9.05 6.54,-12.02 4.38,-2.98 10.15,-4.47 17.33,-4.47 7.5,0 14.39,1.19 20.67,3.57l-2.73 6.61c-6.23,-2.27 -12.28,-3.4 -18.16,-3.4 -4.63,0 -8.27,0.87 -10.87,2.59 -2.62,1.74 -3.92,4.13 -3.92,7.22 0,2.27 0.49,4.12 1.44,5.57 0.97,1.45 2.59,2.78 4.87,3.98 2.29,1.21 5.79,2.53 10.5,4 7.9,2.44 13.34,5.07 16.31,7.87 2.97,2.79 4.47,6.44 4.47,10.91zm86.01 -48.01l0 42.32c0,7.45 -2.59,13.31 -7.78,17.58 -5.19,4.26 -12.32,6.39 -21.39,6.39 -9.08,0 -16.1,-2.15 -21.06,-6.44 -4.96,-4.3 -7.44,-10.19 -7.44,-17.72l0 -42.13 8.76 0 0 42.65c0,5.46 1.73,9.64 5.16,12.57 3.43,2.92 8.48,4.38 15.15,4.38 6.37,0 11.26,-1.47 14.69,-4.41 3.43,-2.93 5.15,-7.14 5.15,-12.62l0 -42.58 8.76 0zm33.67 65.37l0 -65.37 8.76 0 0 58.51 33.24 0 0 6.87 -42 0zm91.69 0l-8.76 0 0 -58.6 -23.86 0 0 -6.78 56.46 0 0 6.78 -23.84 0 0 58.6zm114.36 -32.76c0,10.47 -3.06,18.69 -9.15,24.69 -6.1,6 -14.58,8.99 -25.46,8.99 -11.1,0 -19.67,-2.95 -25.69,-8.84 -6.03,-5.89 -9.06,-14.19 -9.06,-24.92 0,-10.65 3.03,-18.89 9.08,-24.75 6.05,-5.86 14.64,-8.79 25.78,-8.79 10.84,0 19.28,2.98 25.37,8.94 6.09,5.97 9.13,14.19 9.13,24.68zm-60.07 -0.01c0,8.85 2.16,15.56 6.51,20.14 4.36,4.58 10.68,6.87 18.95,6.87 8.36,0 14.67,-2.27 18.93,-6.84 4.26,-4.56 6.39,-11.29 6.39,-20.17 0,-8.79 -2.11,-15.46 -6.37,-20.01 -4.24,-4.55 -10.52,-6.82 -18.84,-6.82 -8.36,0 -14.69,2.29 -19.06,6.87 -4.35,4.58 -6.51,11.23 -6.51,19.96zm99.33 5.58l0 27.19 -8.76 0 0 -65.37 20.66 0c9.26,0 16.08,1.54 20.48,4.61 4.42,3.07 6.63,7.69 6.63,13.86 0,8.65 -5.05,14.5 -15.15,17.53l20.46 29.38 -10.36 0 -18.25 -27.19 -15.71 0zm0 -6.5l12 0c6.19,0 10.71,-1.07 13.6,-3.2 2.89,-2.12 4.33,-5.33 4.33,-9.58 0,-4.32 -1.46,-7.43 -4.4,-9.34 -2.94,-1.91 -7.65,-2.87 -14.15,-2.87l-11.38 0 0 25zm117.59 33.69l-9.38 -20.78 -30.23 0 -9.27 20.78 -8.87 0 29.8 -65.65 7.37 0 29.65 65.65 -9.08 0zm-12.1 -27.65l-8.78 -20.25c-1.13,-2.56 -2.31,-5.71 -3.5,-9.43 -0.76,2.85 -1.83,6 -3.25,9.43l-8.87 20.25 24.4 0z"/>
 </g>
</svg>
